<svg viewBox="0 0 32 32" xmlns="http://www.w3.org/2000/svg"><path fill="#FFFFFF" d="M 7.8 17 L 25.3 7 l -1.2 -2.3 L 6.6 15 l 1.2 2 Z m -1.2 0 l 17.5 10.3 l 1.2 -2.3 L 7.8 15 l -1.2 2 Z m 5.6 -1 c 0 -2.7 -2.2 -5 -5 -5 c -2.7 0 -4.9 2.2 -4.9 5 c 0 2.7 2.2 4.9 4.9 4.9 c 2.8 0 5 -2.2 5 -4.9 Z M 29.7 5.9 c 0 -2.7 -2.2 -5 -5 -5 c -2.7 0 -4.9 2.2 -4.9 5 c 0 2.7 2.2 4.9 4.9 4.9 c 2.8 0 5 -2.2 5 -4.9 Z m 0 20.2 c 0 -2.7 -2.2 -5 -5 -5 c -2.7 0 -4.9 2.2 -4.9 5 c 0 2.7 2.2 4.9 4.9 4.9 c 2.8 0.1 5 -2.2 5 -4.9 Z"/></svg>